<mxfile host="65bd71144e">
    <diagram id="idaDRof-Yun4HdA3no64" name="Page-1">
        <mxGraphModel dx="1074" dy="741" grid="1" gridSize="10" guides="1" tooltips="1" connect="1" arrows="1" fold="1" page="1" pageScale="1" pageWidth="827" pageHeight="1169" math="0" shadow="0">
            <root>
                <mxCell id="0"/>
                <mxCell id="1" parent="0"/>
                <mxCell id="2" style="edgeStyle=none;html=1;entryX=0;entryY=0.5;entryDx=0;entryDy=0;exitX=1;exitY=0.5;exitDx=0;exitDy=0;" edge="1" parent="1" source="3" target="14">
                    <mxGeometry relative="1" as="geometry">
                        <mxPoint x="560" y="80" as="targetPoint"/>
                    </mxGeometry>
                </mxCell>
                <mxCell id="3" value="&lt;div&gt;lightSpeed = 2.998 *&amp;nbsp;&lt;span&gt;Math.pow(10, 8)&lt;/span&gt;&lt;/div&gt;" style="rounded=0;whiteSpace=wrap;html=1;" vertex="1" parent="1">
                    <mxGeometry x="240" y="60" width="240" height="40" as="geometry"/>
                </mxCell>
                <mxCell id="4" style="edgeStyle=none;html=1;entryX=0;entryY=0.5;entryDx=0;entryDy=0;" edge="1" parent="1" source="5" target="3">
                    <mxGeometry relative="1" as="geometry"/>
                </mxCell>
                <mxCell id="5" value="Start" style="ellipse;whiteSpace=wrap;html=1;" vertex="1" parent="1">
                    <mxGeometry x="40" y="40" width="120" height="80" as="geometry"/>
                </mxCell>
                <mxCell id="6" style="edgeStyle=none;html=1;entryX=1;entryY=0.5;entryDx=0;entryDy=0;" edge="1" parent="1" source="7" target="10">
                    <mxGeometry relative="1" as="geometry"/>
                </mxCell>
                <mxCell id="7" value="&lt;div&gt;Get mString&amp;nbsp;&lt;/div&gt;&lt;div&gt;(Enter M(kg): )&lt;/div&gt;" style="shape=parallelogram;perimeter=parallelogramPerimeter;whiteSpace=wrap;html=1;fixedSize=1;" vertex="1" parent="1">
                    <mxGeometry x="560" y="200" width="120" height="40" as="geometry"/>
                </mxCell>
                <mxCell id="8" style="edgeStyle=none;html=1;entryX=0.5;entryY=0;entryDx=0;entryDy=0;" edge="1" parent="1" source="10" target="13">
                    <mxGeometry relative="1" as="geometry"/>
                </mxCell>
                <mxCell id="9" style="edgeStyle=none;html=1;entryX=0.5;entryY=0;entryDx=0;entryDy=0;exitX=0;exitY=0.5;exitDx=0;exitDy=0;rounded=0;" edge="1" parent="1" source="10" target="18">
                    <mxGeometry relative="1" as="geometry">
                        <mxPoint x="210" y="290" as="targetPoint"/>
                        <Array as="points">
                            <mxPoint x="200" y="220"/>
                        </Array>
                    </mxGeometry>
                </mxCell>
                <mxCell id="10" value="If&lt;br&gt;&amp;nbsp;mNumber = parseInt(mString)" style="rhombus;whiteSpace=wrap;html=1;" vertex="1" parent="1">
                    <mxGeometry x="360" y="160" width="120" height="120" as="geometry"/>
                </mxCell>
                <mxCell id="11" style="edgeStyle=none;html=1;exitX=0.5;exitY=1;exitDx=0;exitDy=0;" edge="1" parent="1" source="14" target="7">
                    <mxGeometry relative="1" as="geometry">
                        <mxPoint x="620" y="100" as="sourcePoint"/>
                    </mxGeometry>
                </mxCell>
                <mxCell id="12" style="edgeStyle=none;html=1;entryX=0.5;entryY=0;entryDx=0;entryDy=0;" edge="1" parent="1" source="13" target="16">
                    <mxGeometry relative="1" as="geometry"/>
                </mxCell>
                <mxCell id="13" value="e = mNumber * Math.pow(lightSpeed, 2)" style="rounded=0;whiteSpace=wrap;html=1;" vertex="1" parent="1">
                    <mxGeometry x="300" y="320" width="240" height="40" as="geometry"/>
                </mxCell>
                <mxCell id="14" value="&lt;span&gt;Print (E=mcÂ²)&lt;/span&gt;" style="shape=parallelogram;perimeter=parallelogramPerimeter;whiteSpace=wrap;html=1;fixedSize=1;" vertex="1" parent="1">
                    <mxGeometry x="560" y="60" width="120" height="40" as="geometry"/>
                </mxCell>
                <mxCell id="15" style="edgeStyle=none;html=1;entryX=0.5;entryY=0;entryDx=0;entryDy=0;" edge="1" parent="1" source="16" target="20">
                    <mxGeometry relative="1" as="geometry"/>
                </mxCell>
                <mxCell id="16" value="Print(E = e)" style="shape=parallelogram;perimeter=parallelogramPerimeter;whiteSpace=wrap;html=1;fixedSize=1;" vertex="1" parent="1">
                    <mxGeometry x="360" y="400" width="120" height="40" as="geometry"/>
                </mxCell>
                <mxCell id="17" style="edgeStyle=none;html=1;entryX=0.5;entryY=0;entryDx=0;entryDy=0;rounded=0;" edge="1" parent="1" source="18" target="20">
                    <mxGeometry relative="1" as="geometry">
                        <Array as="points">
                            <mxPoint x="200" y="480"/>
                            <mxPoint x="420" y="480"/>
                        </Array>
                    </mxGeometry>
                </mxCell>
                <mxCell id="18" value="Print(Invalid input!)" style="shape=parallelogram;perimeter=parallelogramPerimeter;whiteSpace=wrap;html=1;fixedSize=1;" vertex="1" parent="1">
                    <mxGeometry x="120" y="400" width="160" height="40" as="geometry"/>
                </mxCell>
                <mxCell id="19" style="edgeStyle=none;html=1;entryX=0;entryY=0.5;entryDx=0;entryDy=0;" edge="1" parent="1" source="20" target="21">
                    <mxGeometry relative="1" as="geometry"/>
                </mxCell>
                <mxCell id="20" value="Print (Done)" style="shape=parallelogram;perimeter=parallelogramPerimeter;whiteSpace=wrap;html=1;fixedSize=1;" vertex="1" parent="1">
                    <mxGeometry x="360" y="520" width="120" height="40" as="geometry"/>
                </mxCell>
                <mxCell id="21" value="Stop" style="ellipse;whiteSpace=wrap;html=1;" vertex="1" parent="1">
                    <mxGeometry x="560" y="500" width="120" height="80" as="geometry"/>
                </mxCell>
                <mxCell id="22" value="No" style="text;html=1;strokeColor=none;fillColor=none;align=center;verticalAlign=middle;whiteSpace=wrap;rounded=0;" vertex="1" parent="1">
                    <mxGeometry x="330" y="200" width="30" height="10" as="geometry"/>
                </mxCell>
                <mxCell id="23" value="Yes" style="text;html=1;strokeColor=none;fillColor=none;align=center;verticalAlign=middle;whiteSpace=wrap;rounded=0;" vertex="1" parent="1">
                    <mxGeometry x="420" y="280" width="40" height="10" as="geometry"/>
                </mxCell>
            </root>
        </mxGraphModel>
    </diagram>
</mxfile>